<?xml version="1.0" encoding="utf-8"?>
<!-- Generator: Adobe Illustrator 23.0.4, SVG Export Plug-In . SVG Version: 6.00 Build 0)  -->
<svg version="1.1" id="Layer_1" xmlns="http://www.w3.org/2000/svg" xmlns:xlink="http://www.w3.org/1999/xlink" x="0px" y="0px"
	 viewBox="0 0 1306.7 338.3" style="enable-background:new 0 0 1306.7 338.3;" xml:space="preserve">
<style type="text/css">
	.st0{fill:#FFFFFF;}
	.st1{fill:#F6F5F5;}
	.st2{fill:#353434;}
	.st3{fill:#FFB306;}
	.st4{fill:url(#SVGID_1_);}
	.st5{fill:url(#SVGID_2_);}
	.st6{fill:url(#SVGID_3_);}
	.st7{fill:url(#SVGID_4_);}
	.st8{fill:url(#SVGID_5_);}
</style>
<g>
	<path class="st2" d="M425.4,56.8c18.6,0,24.1,9.1,24.1,9.1h0.4c0,0-0.2-1.8-0.2-4.1V44c0-6.4,3.4-9.8,9.8-9.8h11.2
		c6.4,0,9.8,3.4,9.8,9.8v97c0,6.4-3.4,9.8-9.8,9.8h-9.3c-6.4,0-9.8-3-9.8-8.9v-1.1c0-0.4,0.2-1.2,0.2-1.2h-0.4
		c0,0-7.7,13.4-26.6,13.4c-25,0-41.4-19.6-41.4-48.2C383.5,75.8,401,56.8,425.4,56.8z M432.6,127.5c9.3,0,18-6.8,18-22.7
		c0-11.1-5.9-21.9-18-21.9c-9.6,0-18,7.9-18,21.9C414.6,118.6,421.9,127.5,432.6,127.5z"/>
	<path class="st2" d="M542.1,56.8c29.1,0,52.3,19.4,52.3,48.3c0,28.7-23.2,47.8-52.1,47.8c-28.9,0-52.1-19.1-52.1-47.8
		C490.2,76.3,513.4,56.8,542.1,56.8z M542.3,127.3c11.2,0,20.9-8.4,20.9-22.1c0-13.9-9.6-22.7-20.9-22.7c-11.2,0-20.9,8.7-20.9,22.7
		C521.4,118.9,531,127.3,542.3,127.3z"/>
	<path class="st2" d="M653.4,56.8c13.9,0,23.7,4.3,29.6,8.2c5,3.2,5.4,8.2,2.1,13.4l-3,4.6c-3.4,5.5-7.5,5.7-13.2,2.9
		c-3.6-1.8-8.2-3.4-13.6-3.4c-14.6,0-21.9,11.1-21.9,21.9s7.5,22.8,23,22.8c6.1,0,12.1-2.5,16.6-5.2c5.9-3.2,10.3-2.5,13.4,3.4
		l2.3,4.5c2.7,5.4,2.1,10.2-2.7,13.4c-6.4,4.3-17.5,9.6-32.6,9.6c-32.8,0-51.2-22.8-51.2-48.2C602.2,80.2,620.4,56.8,653.4,56.8z"/>
	<path class="st2" d="M696.9,44c0-6.4,3.4-9.8,9.8-9.8h11.2c6.4,0,9.8,3.4,9.8,9.8v16.6h9.5c6.4,0,9.8,3.4,9.8,9.8v4.5
		c0,6.4-3.4,9.8-9.6,9.8h-9.6v27.8c0,7.9,5.2,10.9,10.7,11.6c7.1,0.9,9.8,3,9.8,9.8v8c0,7.3-4.5,9.8-12.7,9.8
		c-13.6,0-38.7-6.2-38.7-33.5V44z"/>
	<path class="st2" d="M803.7,56.8c29.1,0,52.3,19.4,52.3,48.3c0,28.7-23.2,47.8-52.1,47.8c-28.9,0-52.1-19.1-52.1-47.8
		C751.8,76.3,775,56.8,803.7,56.8z M803.9,127.3c11.2,0,20.9-8.4,20.9-22.1c0-13.9-9.6-22.7-20.9-22.7c-11.2,0-20.9,8.7-20.9,22.7
		C783,118.9,792.6,127.3,803.9,127.3z"/>
	<path class="st2" d="M865.4,68.8c0-6.4,3.4-9.8,9.8-9.8h10c6.4,0,9.8,3.4,9.8,9.8v5.7c0,3-0.4,5.7-0.4,5.7h0.4
		c3-9.5,12.8-22.1,24.4-22.1c6.2,0,8.4,3.4,8.4,9.8v10c0,6.4-3.4,9.8-9.8,9.8c-14.6,0-21.8,12.5-21.8,27.5V141
		c0,6.4-3.4,9.8-9.8,9.8h-11.2c-6.4,0-9.8-3.4-9.8-9.8V68.8z"/>
	<path class="st2" d="M1011.6,56.8c13.9,0,23.7,4.3,29.6,8.2c5,3.2,5.4,8.2,2.1,13.4l-3,4.6c-3.4,5.5-7.5,5.7-13.2,2.9
		c-3.6-1.8-8.2-3.4-13.6-3.4c-14.6,0-21.9,11.1-21.9,21.9s7.5,22.8,23,22.8c6.1,0,12.1-2.5,16.6-5.2c5.9-3.2,10.3-2.5,13.4,3.4
		l2.3,4.5c2.7,5.4,2.1,10.2-2.7,13.4c-6.4,4.3-17.5,9.6-32.6,9.6c-32.8,0-51.2-22.8-51.2-48.2C960.4,80.2,978.6,56.8,1011.6,56.8z"
		/>
	<path class="st2" d="M1105.6,93.6h2.7V92c0-7.7-6.2-10.2-13-10.2c-5.9,0-12,2-16.6,4.1c-5.9,2.5-10.3,1.4-13.2-4.3l-2.1-4.5
		c-2.7-5.5-1.6-10.3,3.9-13.2c7-3.2,17.7-7.1,30.9-7.1c25.3,0,41,14.1,41,37.5V141c0,6.4-3.4,9.8-9.8,9.8h-8.6
		c-6.4,0-9.8-3.2-9.8-10v-0.7c0-1.1,0.2-1.8,0.2-1.8h-0.4c0,0-8.7,14.6-27.1,14.6c-17.7,0-30-12.1-30-28
		C1053.7,100.4,1082.9,93.6,1105.6,93.6z M1092.9,130c8.9,0,15.7-8.7,15.7-16.2v-2.5h-2.9c-9.5,0-21.6,2.5-21.6,10.9
		C1084.2,126.4,1087.2,130,1092.9,130z"/>
	<path class="st2" d="M1150.3,68.8c0-6.4,3.4-9.8,9.8-9.8h10c6.4,0,9.8,3.4,9.8,9.8v5.7c0,3-0.4,5.7-0.4,5.7h0.4
		c3-9.5,12.8-22.1,24.4-22.1c6.2,0,8.4,3.4,8.4,9.8v10c0,6.4-3.4,9.8-9.8,9.8c-14.6,0-21.8,12.5-21.8,27.5V141
		c0,6.4-3.4,9.8-9.8,9.8h-11.2c-6.4,0-9.8-3.4-9.8-9.8V68.8z"/>
	<path class="st2" d="M1264.3,56.8c27.3,0,42.5,19.3,42.5,43.9c0,4.8-4.3,10.2-10.3,10.2h-48.3c2.3,11.2,11.6,16.4,21.4,16.4
		c6.2,0,12.1-2,16.8-4.3c5.9-2.7,10.2-2,13.2,3.7l2.5,4.6c2.9,5.5,2,10.3-3.4,13.4c-6.6,3.7-17.5,8.2-31.6,8.2
		c-32.8,0-50.5-23.7-50.5-48.2C1216.5,77.9,1234.7,56.8,1264.3,56.8z M1276.2,93.2c0-7.5-4.8-13.7-12.7-13.7
		c-8.9,0-13.2,6.4-14.8,13.7H1276.2z"/>
</g>
<g>
	<path class="st2" d="M440.1,224.1h5.2v-2.9c0-17.3-9.5-23.2-22.1-23.2c-10,0-17.7,3.7-21.8,6.2c-2.5,1.3-4.5,0.9-6.1-1.4l-1.1-1.8
		c-1.4-2.3-1.1-4.6,1.3-6.1c4.6-2.9,14.6-7.8,28.5-7.8c21.4,0,33.4,11.9,33.4,34.4v53c0,2.9-1.4,4.5-4.3,4.5h-2.9
		c-2.9,0-4.5-1.4-4.5-4.5v-7.1c0-4.1,0.5-6.8,0.5-6.8h-0.4c0.2,0-8,20.5-30.3,20.5c-15.2,0-30.3-8.9-30.3-26.2
		C385.3,225.7,422.8,224.1,440.1,224.1z M417.8,271c17.3,0,27.5-17.8,27.5-33.5v-4.3h-5c-14.1,0-42.5,0.5-42.5,20.7
		C397.8,262.3,404.4,271,417.8,271z"/>
	<path class="st2" d="M470.9,193.8c0-2.9,1.6-4.5,4.5-4.5h3.2c2.7,0,4.3,1.6,4.3,4.5v10.3c0,3.6-0.7,6.4-0.7,6.4h0.4
		c3.4-8.2,15.2-23.4,36.2-23.4c22.3,0,30.1,12.7,30.1,34.8v52.6c0,2.9-1.6,4.5-4.5,4.5H541c-2.9,0-4.3-1.6-4.3-4.5v-49.4
		c0-14.1-2.3-26.6-19.6-26.6c-19.1,0-34.1,15.7-34.1,36.6v39.4c0,2.9-1.4,4.5-4.3,4.5h-3.4c-2.9,0-4.5-1.6-4.5-4.5V193.8z"/>
	<path class="st2" d="M559.7,303.5c2,0.9,4.6,2.3,7.9,2.3c8,0,13.4-7,16.8-14.8l5.4-12.7l-35.3-83.8c-1.2-3,0.2-5.2,3.4-5.2h4.1
		c2.7,0,4.1,1.1,5,3.4l25.2,62.1c1.6,4.5,3.2,9.5,3.2,9.5h0.4c0,0,1.2-5,3-9.5l24.6-61.9c0.9-2.5,2.3-3.6,5-3.6h3.9
		c3.2,0,4.6,2,3.6,5.2l-42.3,102.7c-4.6,11.6-13.9,19.3-25.9,19.3c-5.2,0-9.5-1.8-12.3-3.2c-2.3-1.1-3-3.6-2-5.7l1.1-2
		C555.6,303.3,557.5,302.8,559.7,303.5z"/>
	<path class="st2" d="M648.6,194.3c-0.9-3,0.5-5,3.7-5h3.7c2.5,0,4.3,1.1,5,3.7l20.5,63.1c1.4,4.3,2.7,9.6,2.7,9.6h0.4
		c0,0,1.4-5.4,2.9-9.6l20.9-63c0.7-2.5,2.5-3.6,5-3.6h4.3c2.5,0,4.3,1.1,5,3.6l20.9,63c1.4,4.3,2.9,9.6,2.9,9.6h0.4
		c0,0,1.1-5.2,2.7-9.6l20.5-63.1c0.7-2.7,2.5-3.7,5-3.7h3.7c3.2,0,4.5,2,3.6,5l-27.5,81c-0.7,2.7-2.5,3.7-5,3.7h-5.5
		c-2.7,0-4.3-1.1-5-3.7l-20.9-60.1c-1.4-4.5-2.7-9.6-2.7-9.6h-0.4c0,0-1.2,5.2-2.9,9.6l-20.7,60.1c-0.7,2.7-2.3,3.7-5,3.7h-5.5
		c-2.7,0-4.3-1.1-5.2-3.7L648.6,194.3z"/>
	<path class="st2" d="M796.1,169.3c0-2.9,1.4-4.5,4.3-4.5h3.4c2.9,0,4.5,1.6,4.5,4.5v33.6c0,4.1-0.7,7.3-0.7,7.3h0.4
		c3.4-8.4,15.5-23,35.9-23c22.3,0,30.1,12.7,30.1,34.8v52.6c0,2.9-1.4,4.5-4.3,4.5h-3.4c-2.9,0-4.5-1.6-4.5-4.5v-49.4
		c0-14.1-2.1-26.6-19.6-26.6c-18.9,0-33.9,15.5-33.9,37.1v38.9c0,2.9-1.6,4.5-4.5,4.5h-3.4c-2.9,0-4.3-1.6-4.3-4.5V169.3z"/>
	<path class="st2" d="M929.5,187.2c23.9,0,37.5,17.3,37.5,42.8c0,2.5-2,4.5-4.6,4.5h-64.6c0.5,22.8,16.2,35.8,34.8,35.8
		c11.2,0,19.4-5,23.5-8.2c2.5-1.6,4.5-1.2,5.9,1.1l1.4,2.1c1.2,2.1,0.9,4.3-1.2,5.9c-4.8,3.6-15.5,10-30,10
		c-26.8,0-46.9-19.3-46.9-46.9C885.2,204.9,905.2,187.2,929.5,187.2z M954.6,225.4c-0.7-18.9-12.1-28.2-25.5-28.2
		c-15,0-28,10-30.9,28.2H954.6z"/>
	<path class="st2" d="M984.6,193.8c0-2.9,1.6-4.5,4.5-4.5h3.2c2.7,0,4.3,1.6,4.3,4.5v12.1c0,3.9-0.7,7.1-0.7,7.1h0.4
		c4.3-13,14.6-24.3,28.9-24.3c3.2,0,4.6,1.4,4.6,4.3v3.2c0,2.9-2,4.5-5,4.5c-18.9,0-28,21.6-28,40.3v33.5c0,2.9-1.4,4.5-4.3,4.5H989
		c-2.9,0-4.5-1.6-4.5-4.5V193.8z"/>
	<path class="st2" d="M1078.8,187.2c23.9,0,37.5,17.3,37.5,42.8c0,2.5-2,4.5-4.6,4.5H1047c0.5,22.8,16.2,35.8,34.8,35.8
		c11.2,0,19.4-5,23.5-8.2c2.5-1.6,4.5-1.2,5.9,1.1l1.4,2.1c1.2,2.1,0.9,4.3-1.2,5.9c-4.8,3.6-15.5,10-30,10
		c-26.8,0-46.9-19.3-46.9-46.9C1034.5,204.9,1054.5,187.2,1078.8,187.2z M1103.9,225.4c-0.7-18.9-12.1-28.2-25.5-28.2
		c-15,0-28,10-30.9,28.2H1103.9z"/>
</g>
<circle class="st3" cx="169.1" cy="169.1" r="72"/>
<circle class="st3" cx="1146.8" cy="263.1" r="16"/>
<linearGradient id="SVGID_1_" gradientUnits="userSpaceOnUse" x1="49.5346" y1="288.7378" x2="288.6777" y2="49.5946">
	<stop  offset="1.384755e-03" style="stop-color:#0E73DD"/>
	<stop  offset="0.1797" style="stop-color:#1684DF"/>
	<stop  offset="0.465" style="stop-color:#219AE0"/>
	<stop  offset="0.7422" style="stop-color:#27A7E2"/>
	<stop  offset="1" style="stop-color:#29ABE2"/>
</linearGradient>
<path class="st4" d="M169.1,338.3c-22,0-43.5-4.2-63.8-12.5c-17.5-7.1-25.9-27.1-18.8-44.6c7.1-17.5,27.1-25.9,44.6-18.8
	c12.1,4.9,24.8,7.4,38,7.4c55.6,0,100.8-45.2,100.8-100.8S224.7,68.4,169.1,68.4S68.4,113.6,68.4,169.1c0,13.1,2.5,25.9,7.4,38
	c7.1,17.5-1.3,37.4-18.8,44.6c-17.5,7.1-37.4-1.3-44.6-18.8C4.2,212.6,0,191.2,0,169.1C0,75.9,75.9,0,169.1,0
	s169.1,75.9,169.1,169.1C338.3,262.4,262.4,338.3,169.1,338.3z"/>
</svg>
